<?xml version="1.0" encoding="UTF-8" standalone="no"?>
<!DOCTYPE svg PUBLIC "-//W3C//DTD SVG 1.1//EN" "http://www.w3.org/Graphics/SVG/1.1/DTD/svg11.dtd">
<svg xmlns="http://www.w3.org/2000/svg" version="1.1" viewBox="0.00 0.00 240.00 240.00">
<clipPath id="clipping-path-0">
<path d="
  M 0.00 0.00
  L 240.00 0.00
  L 240.00 240.00
  L 0.00 240.00
  L 0.00 0.00
  Z"/>
</clipPath>
<g stroke-width="2.00" fill="none" stroke-linecap="butt" clip-path="url(#clipping-path-0)">
<path stroke="#754ad0" vector-effect="non-scaling-stroke" d="
  M 69.07 72.89
  L 69.11 73.55"
/>
<path stroke="#7d4fce" vector-effect="non-scaling-stroke" d="
  M 69.11 73.55
  Q 59.12 103.31 49.13 133.11
  C 48.19 135.90 47.43 138.56 50.13 140.71
  Q 51.73 141.98 54.99 141.81
  Q 61.96 141.46 68.95 141.25
  Q 69.10 141.24 69.22 141.31
  Q 69.47 141.46 69.54 141.71"
/>
<path stroke="#8233d5" vector-effect="non-scaling-stroke" d="
  M 69.54 141.71
  Q 68.08 146.81 66.08 151.78
  Q 64.44 155.82 67.16 157.72
  Q 68.65 158.76 72.10 158.77
  Q 83.16 158.80 94.18 158.68"
/>
<path stroke="#8140d3" vector-effect="non-scaling-stroke" d="
  M 94.18 158.68
  L 124.18 158.66"
/>
<path stroke="#804bd2" vector-effect="non-scaling-stroke" d="
  M 124.18 158.66
  Q 138.00 158.87 151.76 158.97
  Q 157.04 159.01 159.35 155.07
  Q 161.38 151.61 163.03 144.89"
/>
<path stroke="#794ed8" vector-effect="non-scaling-stroke" d="
  M 163.03 144.89
  L 167.02 132.60"
/>
<path stroke="#7052df" vector-effect="non-scaling-stroke" d="
  M 167.02 132.60
  L 171.78 117.80"
/>
<path stroke="#6450e0" vector-effect="non-scaling-stroke" d="
  M 171.78 117.80
  L 186.22 74.01"
/>
<path stroke="#a895ea" vector-effect="non-scaling-stroke" d="
  M 186.22 74.01
  Q 195.94 74.02 199.86 65.83
  C 201.24 62.96 201.71 59.06 201.70 55.78
  Q 201.70 42.96 201.71 31.43
  Q 201.71 31.00 201.29 31.00
  L 194.72 31.00
  Q 194.30 31.00 194.30 31.43
  Q 194.40 44.90 194.26 58.74
  Q 194.19 65.37 188.17 67.39"
/>
<path stroke="#6450e0" vector-effect="non-scaling-stroke" d="
  M 188.17 67.39
  Q 187.44 65.60 186.68 65.33
  Q 182.62 63.89 178.04 64.52"
/>
<path stroke="#a895ea" vector-effect="non-scaling-stroke" d="
  M 178.04 64.52
  Q 175.90 61.08 175.86 56.74
  Q 175.74 43.49 175.78 31.29
  Q 175.78 31.00 175.49 31.00
  L 168.78 31.00
  Q 168.48 31.00 168.48 31.30
  Q 168.50 44.11 168.50 57.38
  C 168.50 59.77 169.05 62.12 169.58 64.43"
/>
<path stroke="#6450e0" vector-effect="non-scaling-stroke" d="
  M 169.58 64.43
  Q 167.26 64.03 166.73 64.59"
/>
<path stroke="#5d35d9" vector-effect="non-scaling-stroke" d="
  M 166.73 64.59
  L 152.56 64.51"
/>
<path stroke="#a895ea" vector-effect="non-scaling-stroke" d="
  M 152.56 64.51
  Q 155.09 53.08 143.80 50.45
  Q 143.05 50.27 143.80 50.08
  C 147.77 49.06 151.29 46.31 151.77 42.10
  C 152.82 33.01 143.03 30.93 136.28 30.97
  Q 127.12 31.04 117.61 30.99
  Q 117.01 30.99 117.01 31.58
  L 117.02 47.22"
/>
<path stroke="#542fd4" vector-effect="non-scaling-stroke" d="
  M 117.02 47.22
  L 109.69 47.15"
/>
<path stroke="#a895ea" vector-effect="non-scaling-stroke" d="
  M 109.69 47.15
  L 97.56 47.02
  A 0.70 0.69 0.4 0 1 96.87 46.33
  L 96.87 41.70
  Q 96.87 41.01 97.55 41.01
  L 110.25 40.99
  A 0.25 0.24 -0.0 0 0 110.50 40.75
  L 110.49 31.26
  Q 110.49 31.01 110.24 31.01
  L 84.72 30.99
  A 0.69 0.69 0.0 0 0 84.03 31.68
  L 84.09 47.78"
/>
<path stroke="#754ad0" vector-effect="non-scaling-stroke" d="
  M 84.09 47.78
  Q 81.13 46.97 78.71 48.84
  Q 77.16 50.04 76.16 53.15
  Q 74.07 59.62 71.03 66.06"
/>
<path stroke="#a895ea" vector-effect="non-scaling-stroke" d="
  M 71.03 66.06
  L 79.52 31.64
  Q 79.68 31.00 79.02 31.00
  L 67.68 31.00
  Q 67.03 31.00 66.92 31.64
  Q 64.60 45.90 62.88 59.71
  Q 62.87 59.79 62.90 59.72
  Q 62.92 59.69 62.94 59.70
  Q 63.00 59.72 62.99 59.65
  Q 60.22 45.82 56.99 31.60
  Q 56.86 31.00 56.24 31.00
  L 43.43 31.00
  Q 42.84 31.00 42.68 31.57
  Q 39.62 43.15 36.51 55.34
  Q 35.99 57.38 35.63 59.60
  Q 35.62 59.70 35.60 59.60
  L 31.71 31.57
  Q 31.63 31.00 31.06 31.00
  L 18.10 31.00
  Q 17.45 31.00 17.60 31.63
  L 27.35 72.48
  Q 27.47 73.00 28.00 73.00
  L 41.26 73.00
  Q 41.99 73.00 42.18 72.29
  Q 45.33 60.31 48.50 48.23
  Q 48.80 47.08 48.81 45.87
  Q 48.81 45.74 48.95 45.73
  L 48.95 45.73
  Q 49.10 45.72 49.11 45.86
  Q 49.20 47.10 49.43 48.11
  Q 52.11 60.29 55.32 72.45
  Q 55.44 72.89 55.90 72.89
  L 69.07 72.89"
/>
<path stroke="#ccb4e6" vector-effect="non-scaling-stroke" d="
  M 71.03 66.06
  L 69.07 72.89"
/>
<path stroke="#9558d2" vector-effect="non-scaling-stroke" d="
  M 92.46 72.98
  L 90.99 78.22"
/>
<path stroke="#9a57d0" vector-effect="non-scaling-stroke" d="
  M 90.99 78.22
  L 87.85 87.51"
/>
<path stroke="#a157cd" vector-effect="non-scaling-stroke" d="
  M 87.85 87.51
  L 83.33 102.31"
/>
<path stroke="#a957c9" vector-effect="non-scaling-stroke" d="
  M 83.33 102.31
  L 80.42 109.93"
/>
<path stroke="#a06eca" vector-effect="non-scaling-stroke" d="
  M 80.42 109.93
  Q 78.36 107.35 77.88 103.67
  Q 77.83 103.25 77.91 102.82
  Q 77.99 102.36 77.61 102.00
  A 0.78 0.75 -70.4 0 1 77.39 101.51
  L 76.97 96.07
  Q 76.94 95.60 76.66 95.23
  Q 75.29 93.40 76.76 91.83
  Q 77.12 91.45 76.93 90.97
  C 76.02 88.67 76.08 86.38 74.76 84.22
  Q 74.50 83.80 74.46 83.30
  L 74.10 78.77
  Q 74.06 78.26 73.65 77.97
  Q 73.00 77.51 73.24 76.78
  Q 73.33 76.48 73.31 76.17
  L 72.97 71.75
  A 1.51 1.51 0.0 0 0 70.07 71.28
  L 69.11 73.55"
/>
<path stroke="#b15bc7" vector-effect="non-scaling-stroke" d="
  M 80.42 109.93
  L 70.19 141.05"
/>
<path stroke="#ae57cf" vector-effect="non-scaling-stroke" d="
  M 70.19 141.05
  Q 70.06 141.29 69.54 141.71"
/>
<path stroke="#a64dd3" vector-effect="non-scaling-stroke" d="
  M 119.26 140.94
  L 109.26 141.08"
/>
<path stroke="#a345d0" vector-effect="non-scaling-stroke" d="
  M 109.26 141.08
  L 108.64 138.59
  Q 108.53 138.15 108.14 137.93
  Q 107.92 137.81 107.91 137.55
  C 107.86 136.09 108.06 134.73 107.54 133.30
  Q 106.66 130.82 106.08 128.03
  Q 105.82 126.77 105.39 125.60
  Q 104.90 124.30 105.03 122.85
  C 105.10 122.06 104.72 121.36 104.54 120.57
  Q 104.37 119.87 103.68 120.11
  Q 103.48 120.19 103.28 120.10
  Q 102.72 119.86 102.87 119.26
  Q 103.05 118.55 102.48 118.09
  Q 102.05 117.76 101.99 117.22
  L 101.60 113.90
  Q 101.55 113.47 101.34 113.09
  Q 100.14 110.95 99.46 108.56
  A 1.02 1.01 87.6 0 0 98.68 107.84
  Q 97.99 107.71 97.92 107.13
  Q 97.87 106.76 97.73 106.41
  Q 96.79 104.03 95.78 101.62
  Q 95.02 99.80 93.18 97.41
  Q 90.76 94.26 90.19 91.77
  Q 89.41 88.31 87.85 87.51"
/>
<path stroke="#b740cd" vector-effect="non-scaling-stroke" d="
  M 94.75 141.25
  Q 82.93 141.69 71.00 141.42
  Q 70.94 141.04 70.19 141.05"
/>
<path stroke="#ad4dd0" vector-effect="non-scaling-stroke" d="
  M 109.26 141.08
  L 95.26 141.33"
/>
<path stroke="#ae40d1" vector-effect="non-scaling-stroke" d="
  M 95.26 141.33
  Q 95.05 141.19 94.75 141.25"
/>
<path stroke="#b244c9" vector-effect="non-scaling-stroke" d="
  M 94.75 141.25
  Q 95.30 139.72 94.54 138.82
  Q 94.24 138.46 94.19 137.99
  L 93.83 134.82
  Q 93.78 134.35 93.42 134.06
  Q 92.85 133.60 93.08 132.91
  A 0.72 0.72 0.0 0 0 92.91 132.19
  C 91.48 130.68 92.73 129.15 91.60 127.88
  A 1.18 1.16 -63.9 0 1 91.31 127.01
  Q 91.48 125.01 90.40 123.83
  Q 90.08 123.47 90.07 123.00
  C 90.06 121.45 90.05 120.07 89.27 118.66
  Q 88.80 117.79 88.47 116.82
  Q 88.30 116.34 88.60 115.93
  Q 88.90 115.51 88.46 115.23
  A 0.91 0.90 19.9 0 1 88.04 114.34
  Q 88.15 113.50 87.45 113.03
  Q 86.99 112.73 87.04 112.18
  Q 87.18 110.73 86.78 109.47
  Q 86.64 109.03 86.18 108.91
  Q 86.02 108.87 85.86 108.89
  A 0.42 0.42 0.0 0 1 85.40 108.38
  Q 86.35 104.46 83.33 102.31"
/>
<path stroke="#8a44da" vector-effect="non-scaling-stroke" d="
  M 96.01 73.08
  Q 97.91 73.65 98.69 75.84
  Q 99.78 78.90 99.97 79.25
  Q 101.06 81.38 102.02 83.43
  Q 102.19 83.78 102.14 84.17
  Q 102.12 84.35 102.13 84.52
  Q 102.13 84.87 102.29 85.21
  Q 104.85 90.78 107.44 96.22
  Q 107.72 96.79 108.09 97.30
  Q 108.50 97.86 108.64 98.52
  Q 108.86 99.58 109.23 100.47
  Q 110.30 103.03 111.52 105.47
  Q 112.08 106.58 112.27 107.71
  Q 112.46 108.83 113.29 109.59
  Q 113.67 109.93 113.80 110.43
  C 113.98 111.12 114.36 111.67 114.98 112.06
  Q 115.60 112.44 115.34 113.18
  Q 115.22 113.54 115.58 113.64
  Q 116.34 113.86 116.23 114.68
  Q 116.13 115.36 116.46 115.96
  Q 118.68 120.04 121.54 124.23
  Q 121.76 124.55 121.53 124.90
  A 0.74 0.74 0.0 0 0 121.44 125.52
  Q 122.09 127.61 122.33 130.04
  C 122.37 130.39 122.57 130.79 122.80 131.05
  Q 123.16 131.48 123.17 132.04
  Q 123.21 133.24 123.58 134.31
  Q 123.94 135.35 124.18 136.44
  Q 124.52 138.02 124.94 139.34
  A 0.95 0.95 0.0 0 0 125.78 139.99
  L 137.14 140.69"
/>
<path stroke="#a14ed5" vector-effect="non-scaling-stroke" d="
  M 137.14 140.69
  L 119.26 140.94"
/>
<path stroke="#9746d6" vector-effect="non-scaling-stroke" d="
  M 119.26 140.94
  L 117.51 139.73
  Q 117.08 139.43 117.27 138.95
  Q 117.70 137.85 116.71 137.11
  A 1.74 1.73 26.7 0 1 116.09 135.25
  Q 116.47 133.90 115.52 133.02
  Q 115.20 132.72 115.17 132.29
  Q 115.08 130.35 114.98 128.42
  Q 114.97 128.24 114.86 128.11
  Q 114.76 127.97 114.59 127.98
  Q 114.10 128.00 114.08 127.50
  L 113.99 124.73
  Q 113.97 124.17 113.49 123.89
  L 113.21 123.72
  A 0.74 0.74 0.0 0 1 112.94 122.73
  Q 113.21 122.24 112.74 121.97
  Q 112.00 121.54 112.68 121.06
  Q 112.94 120.87 112.99 120.56
  Q 113.09 119.96 112.81 119.46
  Q 110.96 116.22 109.20 113.06
  Q 107.37 109.77 105.36 105.89
  Q 103.31 101.95 101.71 97.61
  Q 100.72 94.90 98.84 92.34
  Q 98.13 91.38 97.81 90.19
  Q 97.49 88.96 96.49 87.90
  Q 96.14 87.53 96.09 87.03
  C 96.00 86.04 95.68 85.10 94.94 84.41
  Q 93.44 83.00 93.65 80.74
  Q 93.74 79.83 93.19 79.08
  Q 92.46 78.08 90.99 78.22"
/>
<path stroke="#ab99ea" vector-effect="non-scaling-stroke" d="
  M 109.69 47.15
  L 109.62 56.39
  Q 109.61 57.00 109.01 57.00
  L 97.55 57.01
  Q 96.87 57.01 96.87 57.70
  L 96.89 62.30
  Q 96.89 62.97 97.55 62.97
  L 110.81 63.01
  A 0.65 0.64 83.9 0 1 111.44 63.52
  Q 111.57 64.11 111.45 64.82"
/>
<path stroke="#b49fef" vector-effect="non-scaling-stroke" d="
  M 111.45 64.82
  L 111.41 72.40
  Q 111.41 72.97 110.84 73.01
  L 110.41 73.04"
/>
<path stroke="#b8a0ee" vector-effect="non-scaling-stroke" d="
  M 110.41 73.04
  L 104.12 73.05"
/>
<path stroke="#c0a1ed" vector-effect="non-scaling-stroke" d="
  M 104.12 73.05
  L 96.01 73.08"
/>
<path stroke="#c9a3ec" vector-effect="non-scaling-stroke" d="
  M 96.01 73.08
  L 92.46 72.98"
/>
<path stroke="#ccb4e6" vector-effect="non-scaling-stroke" d="
  M 92.46 72.98
  L 84.81 72.80
  Q 84.28 72.79 84.28 72.26
  L 84.09 47.78"
/>
<path stroke="#b248d4" vector-effect="non-scaling-stroke" d="
  M 94.18 158.68
  Q 96.05 158.00 98.03 158.07
  A 1.10 1.10 0.0 0 0 99.17 156.93
  Q 99.05 153.80 99.12 150.44
  Q 99.13 149.89 99.63 150.14
  Q 99.78 150.21 99.90 150.03
  Q 100.12 149.68 99.93 149.31
  Q 99.58 148.65 99.17 148.03
  A 0.90 0.85 29.1 0 1 99.01 147.53
  L 99.01 143.37
  Q 99.01 142.87 98.51 142.86
  Q 98.12 142.85 97.74 143.03
  Q 97.07 143.34 97.61 142.85
  Q 97.89 142.60 97.88 142.22
  Q 97.87 141.69 97.34 141.71
  Q 96.09 141.74 95.26 141.33"
/>
<path stroke="#7941dc" vector-effect="non-scaling-stroke" d="
  M 104.12 73.05
  Q 105.56 74.52 106.37 76.34
  Q 106.45 76.52 106.65 76.54
  Q 106.79 76.55 106.91 76.59
  Q 107.42 76.76 107.49 77.29
  Q 107.73 79.07 108.53 80.51
  Q 108.63 80.69 108.63 80.91
  Q 108.63 81.06 108.57 81.20
  Q 108.36 81.71 108.88 81.90
  Q 109.81 82.23 109.62 83.25
  Q 109.53 83.78 109.81 84.23
  Q 110.34 85.09 110.63 85.96
  Q 110.67 86.09 110.76 86.20
  Q 110.95 86.46 111.08 86.33
  Q 111.48 85.91 111.55 86.49
  Q 111.63 87.26 111.71 88.03
  Q 111.76 88.51 112.13 88.84
  Q 112.87 89.49 112.81 90.51
  Q 112.78 91.13 113.09 91.66
  Q 115.20 95.24 116.74 98.83
  Q 117.03 99.52 116.84 100.27
  A 1.40 1.38 40.9 0 0 116.91 101.17
  Q 117.65 102.85 118.76 104.35
  Q 119.59 105.47 119.86 106.72
  Q 120.25 108.59 121.53 110.12
  Q 122.46 111.24 123.11 112.53
  Q 123.72 113.76 124.66 114.68
  Q 126.21 116.22 128.02 117.51
  Q 128.28 117.70 128.59 117.64
  Q 128.72 117.62 128.84 117.68
  Q 129.02 117.77 129.13 117.94
  Q 130.05 119.38 131.69 119.76
  Q 132.12 119.86 132.31 120.25
  L 132.48 120.59
  A 0.22 0.22 0.0 0 0 132.75 120.69
  Q 133.69 120.34 133.95 121.30
  Q 134.08 121.75 134.54 121.64
  Q 136.24 121.22 137.15 122.77
  Q 137.32 123.06 137.64 123.03
  Q 138.80 122.94 139.18 124.13
  A 0.78 0.77 77.2 0 0 140.01 124.66
  Q 140.91 124.54 141.27 125.38
  Q 141.44 125.81 141.88 125.67
  Q 142.61 125.45 143.01 126.09
  Q 143.30 126.54 143.76 126.82
  Q 144.74 127.41 145.80 126.67"
/>
<path stroke="#915adc" vector-effect="non-scaling-stroke" d="
  M 145.80 126.67
  L 143.68 133.12"
/>
<path stroke="#9856d6" vector-effect="non-scaling-stroke" d="
  M 143.68 133.12
  L 141.50 138.41"
/>
<path stroke="#994cd7" vector-effect="non-scaling-stroke" d="
  M 141.50 138.41
  Q 139.35 140.78 137.14 140.69"
/>
<path stroke="#6f5ae5" vector-effect="non-scaling-stroke" d="
  M 166.73 64.59
  L 152.44 107.42"
/>
<path stroke="#7b5ce4" vector-effect="non-scaling-stroke" d="
  M 152.44 107.42
  L 151.49 109.91"
/>
<path stroke="#6d40de" vector-effect="non-scaling-stroke" d="
  M 151.49 109.91
  Q 149.67 111.91 149.85 107.99
  Q 149.87 107.49 149.56 107.11
  Q 148.47 105.75 146.86 106.11
  Q 146.53 106.18 146.22 106.06
  Q 145.89 105.92 145.89 105.70
  Q 145.92 105.02 145.23 105.12
  Q 144.76 105.19 144.34 105.03
  Q 143.79 104.82 143.92 104.24
  Q 144.05 103.62 143.63 103.21
  Q 143.19 102.77 143.11 103.38
  Q 143.02 104.03 142.40 104.08
  A 0.29 0.29 0.0 0 1 142.12 103.91
  L 142.01 103.64
  Q 141.82 103.21 142.25 103.01
  L 142.65 102.83
  Q 143.29 102.54 142.67 102.21
  Q 142.31 102.02 141.91 102.12
  A 0.83 0.82 -29.1 0 1 141.15 101.91
  Q 140.99 101.75 140.91 101.55
  Q 140.74 101.12 140.28 101.12
  L 137.73 101.12
  Q 137.18 101.11 136.97 100.61
  Q 136.81 100.23 136.88 99.80
  Q 136.98 99.12 136.30 99.00
  Q 134.80 98.74 133.87 97.42
  Q 133.54 96.96 133.00 97.10
  Q 131.89 97.40 131.10 96.66
  Q 128.84 94.50 126.78 92.35
  Q 126.44 91.99 125.96 92.11
  Q 124.49 92.49 123.78 91.35
  Q 123.56 90.99 123.16 91.11
  Q 122.32 91.36 121.97 90.57
  Q 121.79 90.18 121.37 90.09
  Q 121.00 90.01 120.64 90.09
  Q 119.90 90.25 119.90 89.50
  L 119.90 89.02
  Q 119.90 88.55 119.57 88.21
  L 117.59 86.19
  Q 117.38 85.97 117.23 86.24
  L 117.04 86.60
  Q 116.74 87.17 116.24 86.76
  Q 115.32 86.00 114.98 84.64
  Q 114.88 84.27 115.21 84.06
  Q 115.87 83.66 115.65 82.84
  A 4.73 3.93 -82.6 0 0 114.15 80.47
  Q 112.91 79.51 113.14 78.05
  Q 113.25 77.36 112.78 76.83
  Q 112.09 76.06 112.11 75.00
  Q 112.12 74.50 111.74 74.18
  L 110.41 73.04"
/>
<path stroke="#805ce3" vector-effect="non-scaling-stroke" d="
  M 151.49 109.91
  L 149.41 116.26"
/>
<path stroke="#8959dd" vector-effect="non-scaling-stroke" d="
  M 149.41 116.26
  L 145.80 126.67"
/>
<path stroke="#6039d9" vector-effect="non-scaling-stroke" d="
  M 117.04 64.72
  Q 114.22 64.18 111.45 64.82"
/>
<path stroke="#af60d1" vector-effect="non-scaling-stroke" d="
  M 124.18 158.66
  L 139.54 157.69
  A 1.43 1.42 88.3 0 0 140.88 156.26
  L 140.88 151.42
  A 0.51 0.47 69.2 0 1 141.02 151.07
  Q 141.41 150.67 141.68 150.97
  Q 141.99 151.31 141.88 150.86
  Q 141.84 150.73 141.88 150.61
  Q 142.07 150.07 141.50 150.11
  Q 140.88 150.17 140.88 149.55
  Q 140.91 145.98 140.82 142.71
  Q 140.80 142.10 141.38 141.92
  Q 142.03 141.72 141.91 141.00
  Q 141.71 139.80 141.50 138.41"
/>
<path stroke="#a76ed6" vector-effect="non-scaling-stroke" d="
  M 163.03 144.89
  Q 161.76 143.98 160.82 143.90
  Q 160.21 143.84 159.93 143.29
  Q 159.63 142.70 158.98 142.88
  Q 158.31 143.06 158.02 142.44
  Q 157.83 142.05 157.38 141.97
  A 0.41 0.40 18.4 0 1 157.09 141.40
  Q 157.35 140.88 156.74 140.72
  A 1.08 1.05 84.8 0 1 156.06 140.14
  Q 154.80 137.36 152.12 136.55
  Q 151.98 136.50 151.91 136.64
  Q 151.84 136.76 151.88 136.90
  Q 151.99 137.29 151.71 137.00
  Q 151.51 136.81 151.24 136.87
  Q 150.97 136.94 150.91 137.19
  Q 150.80 137.60 150.80 137.18
  Q 150.80 137.01 150.65 136.92
  Q 150.49 136.82 150.32 136.89
  Q 149.63 137.13 149.92 137.85
  A 0.06 0.05 -2.0 0 1 149.85 137.92
  Q 149.72 137.87 149.59 137.90
  Q 149.41 137.93 149.29 137.79
  Q 148.61 136.94 147.84 136.24
  Q 147.21 135.66 146.61 134.97
  Q 145.63 133.86 143.68 133.12"
/>
<path stroke="#9775e3" vector-effect="non-scaling-stroke" d="
  M 167.02 132.60
  Q 164.44 128.32 161.22 126.74
  A 2.08 2.07 -5.3 0 1 160.47 126.12
  Q 159.70 125.14 158.53 124.78
  Q 158.05 124.63 157.68 124.28
  L 152.96 119.73
  Q 152.58 119.36 152.05 119.37
  Q 151.65 119.37 151.69 118.98
  Q 151.74 118.30 151.08 118.15
  Q 149.73 117.83 149.41 116.26"
/>
<path stroke="#8277eb" vector-effect="non-scaling-stroke" d="
  M 171.78 117.80
  Q 171.37 117.01 170.58 116.90
  A 1.36 1.28 -26.1 0 1 170.13 116.76
  Q 168.90 116.11 167.82 115.34
  Q 167.50 115.11 167.17 115.31
  Q 167.03 115.40 166.86 115.40
  Q 166.49 115.39 166.17 115.19
  Q 165.59 114.82 164.88 114.84
  Q 164.40 114.85 163.99 114.60
  L 161.74 113.26
  Q 161.37 113.04 160.95 112.98
  Q 160.16 112.86 159.70 112.14
  Q 159.40 111.67 158.87 111.50
  Q 157.47 111.05 156.07 110.29
  Q 155.65 110.07 155.97 109.72
  Q 156.02 109.67 155.99 109.61
  Q 155.82 109.19 155.36 108.96
  Q 153.97 108.27 152.44 107.42"
/>
<path stroke="#b49fef" vector-effect="non-scaling-stroke" d="
  M 152.56 64.51
  C 149.78 71.14 143.34 73.06 136.62 73.02
  Q 126.86 72.96 117.74 73.02
  Q 117.13 73.02 117.12 72.41
  L 117.04 64.72"
/>
<path stroke="#ab99ea" vector-effect="non-scaling-stroke" d="
  M 117.04 64.72
  L 117.02 47.22"
/>
<path stroke="#bbbaf6" vector-effect="non-scaling-stroke" d="
  M 178.04 64.52
  Q 181.53 69.21 188.17 67.39"
/>
<path stroke="#bbbaf6" vector-effect="non-scaling-stroke" d="
  M 186.22 74.01
  C 178.51 74.08 172.28 72.42 169.58 64.43"
/>
<path stroke="#a895ea" vector-effect="non-scaling-stroke" d="
  M 218.52 31.29
  A 0.29 0.29 0.0 0 0 218.23 31.00
  L 211.35 31.00
  A 0.29 0.29 0.0 0 0 211.06 31.29
  L 211.06 72.71
  A 0.29 0.29 0.0 0 0 211.35 73.00
  L 218.23 73.00
  A 0.29 0.29 0.0 0 0 218.52 72.71
  L 218.52 31.29"
/>
<path stroke="#a895ea" vector-effect="non-scaling-stroke" d="
  M 104.08 209.97
  L 83.35 176.95
  Q 82.79 176.07 81.75 176.08
  L 74.93 176.13
  Q 74.24 176.14 74.24 176.82
  L 74.24 220.53
  Q 74.24 220.82 74.53 220.82
  L 81.21 220.83
  Q 81.51 220.83 81.51 220.54
  L 81.47 186.79
  Q 81.47 186.41 81.67 186.73
  L 102.99 220.37
  Q 103.30 220.84 103.86 220.84
  L 110.95 220.83
  Q 111.48 220.83 111.48 220.30
  L 111.48 176.31
  Q 111.48 176.11 111.27 176.11
  L 104.57 176.11
  Q 104.29 176.11 104.29 176.40
  Q 104.09 193.01 104.38 209.88
  Q 104.39 210.46 104.08 209.97"
/>
<path stroke="#a895ea" vector-effect="non-scaling-stroke" d="
  M 128.41 195.06
  A 0.41 0.41 0.0 0 1 128.00 194.65
  L 128.00 183.03
  A 0.41 0.41 0.0 0 1 128.41 182.62
  L 144.09 182.62
  A 0.41 0.41 0.0 0 0 144.50 182.21
  L 144.50 176.51
  A 0.41 0.41 0.0 0 0 144.09 176.10
  L 121.17 176.10
  A 0.41 0.41 0.0 0 0 120.76 176.51
  L 120.76 220.43
  A 0.41 0.41 0.0 0 0 121.17 220.84
  L 145.08 220.84
  A 0.41 0.41 0.0 0 0 145.49 220.43
  L 145.48 214.79
  A 0.41 0.41 0.0 0 0 145.07 214.38
  L 128.41 214.38
  A 0.41 0.41 0.0 0 1 128.00 213.97
  L 128.00 201.91
  A 0.41 0.41 0.0 0 1 128.41 201.50
  L 142.60 201.50
  A 0.41 0.41 0.0 0 0 143.01 201.09
  L 142.99 195.44
  A 0.41 0.41 0.0 0 0 142.58 195.03
  L 128.41 195.06"
/>
<path stroke="#a895ea" vector-effect="non-scaling-stroke" d="
  M 159.92 182.62
  A 0.31 0.31 0.0 0 1 160.23 182.93
  L 160.22 220.52
  A 0.31 0.31 0.0 0 0 160.53 220.83
  L 167.41 220.83
  A 0.31 0.31 0.0 0 0 167.72 220.52
  L 167.71 182.90
  A 0.31 0.31 0.0 0 1 168.02 182.59
  L 179.69 182.64
  A 0.31 0.31 0.0 0 0 180.00 182.33
  L 179.98 176.40
  A 0.31 0.31 0.0 0 0 179.67 176.09
  L 148.00 176.11
  A 0.31 0.31 0.0 0 0 147.69 176.43
  L 147.78 182.30
  A 0.31 0.31 0.0 0 0 148.09 182.60
  L 159.92 182.62"
/>
<path stroke="#a895ea" vector-effect="non-scaling-stroke" d="
  M 67.09 217.30
  A 4.39 4.39 0.0 0 0 62.70 212.91
  A 4.39 4.39 0.0 0 0 58.31 217.30
  A 4.39 4.39 0.0 0 0 62.70 221.69
  A 4.39 4.39 0.0 0 0 67.09 217.30"
/>
<path stroke="#a895ea" vector-effect="non-scaling-stroke" d="
  M 129.86 40.49
  L 129.88 46.55
  A 0.45 0.45 0.0 0 0 130.33 47.00
  L 132.39 47.00
  A 5.79 3.26 -0.2 0 0 138.17 43.72
  L 138.17 43.28
  A 5.79 3.26 -0.2 0 0 132.37 40.04
  L 130.31 40.04
  A 0.45 0.45 0.0 0 0 129.86 40.49"
/>
<path stroke="#ab99ea" vector-effect="non-scaling-stroke" d="
  M 129.86 56.41
  L 129.86 63.53
  A 0.43 0.43 0.0 0 0 130.29 63.96
  L 134.06 63.96
  A 5.34 3.67 -0.0 0 0 139.40 60.29
  L 139.40 59.65
  A 5.34 3.67 0.0 0 0 134.06 55.98
  L 130.29 55.98
  A 0.43 0.43 0.0 0 0 129.86 56.41"
/>
</g>
<path fill="#512bd4" d="
  M 240.00 18.63
  L 240.00 222.00
  Q 238.67 233.49 228.50 238.68
  Q 227.02 239.44 222.37 240.00
  L 17.75 240.00
  Q 15.38 239.36 13.06 238.55
  Q 0.94 234.30 0.96 221.39
  Q 1.08 122.38 0.94 23.54
  Q 0.93 17.48 1.50 13.94
  Q 2.20 9.55 7.74 4.71
  Q 11.96 1.00 17.41 1.00
  Q 123.55 1.00 221.40 1.00
  Q 230.51 1.00 235.59 7.18
  Q 239.32 11.71 240.00 18.63
  Z
  M 69.07 72.89
  L 69.11 73.55
  Q 59.12 103.31 49.13 133.11
  C 48.19 135.90 47.43 138.56 50.13 140.71
  Q 51.73 141.98 54.99 141.81
  Q 61.96 141.46 68.95 141.25
  Q 69.10 141.24 69.22 141.31
  Q 69.47 141.46 69.54 141.71
  Q 68.08 146.81 66.08 151.78
  Q 64.44 155.82 67.16 157.72
  Q 68.65 158.76 72.10 158.77
  Q 83.16 158.80 94.18 158.68
  L 124.18 158.66
  Q 138.00 158.87 151.76 158.97
  Q 157.04 159.01 159.35 155.07
  Q 161.38 151.61 163.03 144.89
  L 167.02 132.60
  L 171.78 117.80
  L 186.22 74.01
  Q 195.94 74.02 199.86 65.83
  C 201.24 62.96 201.71 59.06 201.70 55.78
  Q 201.70 42.96 201.71 31.43
  Q 201.71 31.00 201.29 31.00
  L 194.72 31.00
  Q 194.30 31.00 194.30 31.43
  Q 194.40 44.90 194.26 58.74
  Q 194.19 65.37 188.17 67.39
  Q 187.44 65.60 186.68 65.33
  Q 182.62 63.89 178.04 64.52
  Q 175.90 61.08 175.86 56.74
  Q 175.74 43.49 175.78 31.29
  Q 175.78 31.00 175.49 31.00
  L 168.78 31.00
  Q 168.48 31.00 168.48 31.30
  Q 168.50 44.11 168.50 57.38
  C 168.50 59.77 169.05 62.12 169.58 64.43
  Q 167.26 64.03 166.73 64.59
  L 152.56 64.51
  Q 155.09 53.08 143.80 50.45
  Q 143.05 50.27 143.80 50.08
  C 147.77 49.06 151.29 46.31 151.77 42.10
  C 152.82 33.01 143.03 30.93 136.28 30.97
  Q 127.12 31.04 117.61 30.99
  Q 117.01 30.99 117.01 31.58
  L 117.02 47.22
  L 109.69 47.15
  L 97.56 47.02
  A 0.70 0.69 0.4 0 1 96.87 46.33
  L 96.87 41.70
  Q 96.87 41.01 97.55 41.01
  L 110.25 40.99
  A 0.25 0.24 -0.0 0 0 110.50 40.75
  L 110.49 31.26
  Q 110.49 31.01 110.24 31.01
  L 84.72 30.99
  A 0.69 0.69 0.0 0 0 84.03 31.68
  L 84.09 47.78
  Q 81.13 46.97 78.71 48.84
  Q 77.16 50.04 76.16 53.15
  Q 74.07 59.62 71.03 66.06
  L 79.52 31.64
  Q 79.68 31.00 79.02 31.00
  L 67.68 31.00
  Q 67.03 31.00 66.92 31.64
  Q 64.60 45.90 62.88 59.71
  Q 62.87 59.79 62.90 59.72
  Q 62.92 59.69 62.94 59.70
  Q 63.00 59.72 62.99 59.65
  Q 60.22 45.82 56.99 31.60
  Q 56.86 31.00 56.24 31.00
  L 43.43 31.00
  Q 42.84 31.00 42.68 31.57
  Q 39.62 43.15 36.51 55.34
  Q 35.99 57.38 35.63 59.60
  Q 35.62 59.70 35.60 59.60
  L 31.71 31.57
  Q 31.63 31.00 31.06 31.00
  L 18.10 31.00
  Q 17.45 31.00 17.60 31.63
  L 27.35 72.48
  Q 27.47 73.00 28.00 73.00
  L 41.26 73.00
  Q 41.99 73.00 42.18 72.29
  Q 45.33 60.31 48.50 48.23
  Q 48.80 47.08 48.81 45.87
  Q 48.81 45.74 48.95 45.73
  L 48.95 45.73
  Q 49.10 45.72 49.11 45.86
  Q 49.20 47.10 49.43 48.11
  Q 52.11 60.29 55.32 72.45
  Q 55.44 72.89 55.90 72.89
  L 69.07 72.89
  Z
  M 218.52 31.29
  A 0.29 0.29 0.0 0 0 218.23 31.00
  L 211.35 31.00
  A 0.29 0.29 0.0 0 0 211.06 31.29
  L 211.06 72.71
  A 0.29 0.29 0.0 0 0 211.35 73.00
  L 218.23 73.00
  A 0.29 0.29 0.0 0 0 218.52 72.71
  L 218.52 31.29
  Z
  M 104.08 209.97
  L 83.35 176.95
  Q 82.79 176.07 81.75 176.08
  L 74.93 176.13
  Q 74.24 176.14 74.24 176.82
  L 74.24 220.53
  Q 74.24 220.82 74.53 220.82
  L 81.21 220.83
  Q 81.51 220.83 81.51 220.54
  L 81.47 186.79
  Q 81.47 186.41 81.67 186.73
  L 102.99 220.37
  Q 103.30 220.84 103.86 220.84
  L 110.95 220.83
  Q 111.48 220.83 111.48 220.30
  L 111.48 176.31
  Q 111.48 176.11 111.27 176.11
  L 104.57 176.11
  Q 104.29 176.11 104.29 176.40
  Q 104.09 193.01 104.38 209.88
  Q 104.39 210.46 104.08 209.97
  Z
  M 128.41 195.06
  A 0.41 0.41 0.0 0 1 128.00 194.65
  L 128.00 183.03
  A 0.41 0.41 0.0 0 1 128.41 182.62
  L 144.09 182.62
  A 0.41 0.41 0.0 0 0 144.50 182.21
  L 144.50 176.51
  A 0.41 0.41 0.0 0 0 144.09 176.10
  L 121.17 176.10
  A 0.41 0.41 0.0 0 0 120.76 176.51
  L 120.76 220.43
  A 0.41 0.41 0.0 0 0 121.17 220.84
  L 145.08 220.84
  A 0.41 0.41 0.0 0 0 145.49 220.43
  L 145.48 214.79
  A 0.41 0.41 0.0 0 0 145.07 214.38
  L 128.41 214.38
  A 0.41 0.41 0.0 0 1 128.00 213.97
  L 128.00 201.91
  A 0.41 0.41 0.0 0 1 128.41 201.50
  L 142.60 201.50
  A 0.41 0.41 0.0 0 0 143.01 201.09
  L 142.99 195.44
  A 0.41 0.41 0.0 0 0 142.58 195.03
  L 128.41 195.06
  Z
  M 159.92 182.62
  A 0.31 0.31 0.0 0 1 160.23 182.93
  L 160.22 220.52
  A 0.31 0.31 0.0 0 0 160.53 220.83
  L 167.41 220.83
  A 0.31 0.31 0.0 0 0 167.72 220.52
  L 167.71 182.90
  A 0.31 0.31 0.0 0 1 168.02 182.59
  L 179.69 182.64
  A 0.31 0.31 0.0 0 0 180.00 182.33
  L 179.98 176.40
  A 0.31 0.31 0.0 0 0 179.67 176.09
  L 148.00 176.11
  A 0.31 0.31 0.0 0 0 147.69 176.43
  L 147.78 182.30
  A 0.31 0.31 0.0 0 0 148.09 182.60
  L 159.92 182.62
  Z
  M 67.09 217.30
  A 4.39 4.39 0.0 0 0 62.70 212.91
  A 4.39 4.39 0.0 0 0 58.31 217.30
  A 4.39 4.39 0.0 0 0 62.70 221.69
  A 4.39 4.39 0.0 0 0 67.09 217.30
  Z"
/>
<g>
<path fill="#ffffff" d="
  M 71.03 66.06
  L 69.07 72.89
  L 55.90 72.89
  Q 55.44 72.89 55.32 72.45
  Q 52.11 60.29 49.43 48.11
  Q 49.20 47.10 49.11 45.86
  Q 49.10 45.72 48.95 45.73
  L 48.95 45.73
  Q 48.81 45.74 48.81 45.87
  Q 48.80 47.08 48.50 48.23
  Q 45.33 60.31 42.18 72.29
  Q 41.99 73.00 41.26 73.00
  L 28.00 73.00
  Q 27.47 73.00 27.35 72.48
  L 17.60 31.63
  Q 17.45 31.00 18.10 31.00
  L 31.06 31.00
  Q 31.63 31.00 31.71 31.57
  L 35.60 59.60
  Q 35.62 59.70 35.63 59.60
  Q 35.99 57.38 36.51 55.34
  Q 39.62 43.15 42.68 31.57
  Q 42.84 31.00 43.43 31.00
  L 56.24 31.00
  Q 56.86 31.00 56.99 31.60
  Q 60.22 45.82 62.99 59.65
  Q 63.00 59.72 62.94 59.70
  Q 62.92 59.69 62.90 59.72
  Q 62.87 59.79 62.88 59.71
  Q 64.60 45.90 66.92 31.64
  Q 67.03 31.00 67.68 31.00
  L 79.02 31.00
  Q 79.68 31.00 79.52 31.64
  L 71.03 66.06
  Z"
/>
<path fill="#ffffff" d="
  M 109.69 47.15
  L 109.62 56.39
  Q 109.61 57.00 109.01 57.00
  L 97.55 57.01
  Q 96.87 57.01 96.87 57.70
  L 96.89 62.30
  Q 96.89 62.97 97.55 62.97
  L 110.81 63.01
  A 0.65 0.64 83.9 0 1 111.44 63.52
  Q 111.57 64.11 111.45 64.82
  L 111.41 72.40
  Q 111.41 72.97 110.84 73.01
  L 110.41 73.04
  L 104.12 73.05
  L 96.01 73.08
  L 92.46 72.98
  L 84.81 72.80
  Q 84.28 72.79 84.28 72.26
  L 84.09 47.78
  L 84.03 31.68
  A 0.69 0.69 0.0 0 1 84.72 30.99
  L 110.24 31.01
  Q 110.49 31.01 110.49 31.26
  L 110.50 40.75
  A 0.25 0.24 0.0 0 1 110.25 40.99
  L 97.55 41.01
  Q 96.87 41.01 96.87 41.70
  L 96.87 46.33
  A 0.70 0.69 0.4 0 0 97.56 47.02
  L 109.69 47.15
  Z"
/>
<path fill="#ffffff" d="
  M 152.56 64.51
  C 149.78 71.14 143.34 73.06 136.62 73.02
  Q 126.86 72.96 117.74 73.02
  Q 117.13 73.02 117.12 72.41
  L 117.04 64.72
  L 117.02 47.22
  L 117.01 31.58
  Q 117.01 30.99 117.61 30.99
  Q 127.12 31.04 136.28 30.97
  C 143.03 30.93 152.82 33.01 151.77 42.10
  C 151.29 46.31 147.77 49.06 143.80 50.08
  Q 143.05 50.27 143.80 50.45
  Q 155.09 53.08 152.56 64.51
  Z
  M 129.86 40.49
  L 129.88 46.55
  A 0.45 0.45 0.0 0 0 130.33 47.00
  L 132.39 47.00
  A 5.79 3.26 -0.2 0 0 138.17 43.72
  L 138.17 43.28
  A 5.79 3.26 -0.2 0 0 132.37 40.04
  L 130.31 40.04
  A 0.45 0.45 0.0 0 0 129.86 40.49
  Z
  M 129.86 56.41
  L 129.86 63.53
  A 0.43 0.43 0.0 0 0 130.29 63.96
  L 134.06 63.96
  A 5.34 3.67 -0.0 0 0 139.40 60.29
  L 139.40 59.65
  A 5.34 3.67 0.0 0 0 134.06 55.98
  L 130.29 55.98
  A 0.43 0.43 0.0 0 0 129.86 56.41
  Z"
/>
<path fill="#ffffff" d="
  M 178.04 64.52
  Q 181.53 69.21 188.17 67.39
  Q 194.19 65.37 194.26 58.74
  Q 194.40 44.90 194.30 31.43
  Q 194.30 31.00 194.72 31.00
  L 201.29 31.00
  Q 201.71 31.00 201.71 31.43
  Q 201.70 42.96 201.70 55.78
  C 201.71 59.06 201.24 62.96 199.86 65.83
  Q 195.94 74.02 186.22 74.01
  C 178.51 74.08 172.28 72.42 169.58 64.43
  C 169.05 62.12 168.50 59.77 168.50 57.38
  Q 168.50 44.11 168.48 31.30
  Q 168.48 31.00 168.78 31.00
  L 175.49 31.00
  Q 175.78 31.00 175.78 31.29
  Q 175.74 43.49 175.86 56.74
  Q 175.90 61.08 178.04 64.52
  Z"
/>
<path fill="#ffffff" d="
  M 218.52 72.71
  A 0.29 0.29 0.0 0 1 218.23 73.00
  L 211.35 73.00
  A 0.29 0.29 0.0 0 1 211.06 72.71
  L 211.06 31.29
  A 0.29 0.29 0.0 0 1 211.35 31.00
  L 218.23 31.00
  A 0.29 0.29 0.0 0 1 218.52 31.29
  L 218.52 72.71
  Z"
/>
<path fill="#5732d4" d="
  M 117.02 47.22
  L 117.04 64.72
  Q 114.22 64.18 111.45 64.82
  Q 111.57 64.11 111.44 63.52
  A 0.65 0.64 83.9 0 0 110.81 63.01
  L 97.55 62.97
  Q 96.89 62.97 96.89 62.30
  L 96.87 57.70
  Q 96.87 57.01 97.55 57.01
  L 109.01 57.00
  Q 109.61 57.00 109.62 56.39
  L 109.69 47.15
  L 117.02 47.22
  Z"
/>
<path fill="#9869cc" d="
  M 84.09 47.78
  L 84.28 72.26
  Q 84.28 72.79 84.81 72.80
  L 92.46 72.98
  L 90.99 78.22
  L 87.85 87.51
  L 83.33 102.31
  L 80.42 109.93
  Q 78.36 107.35 77.88 103.67
  Q 77.83 103.25 77.91 102.82
  Q 77.99 102.36 77.61 102.00
  A 0.78 0.75 -70.4 0 1 77.39 101.51
  L 76.97 96.07
  Q 76.94 95.60 76.66 95.23
  Q 75.29 93.40 76.76 91.83
  Q 77.12 91.45 76.93 90.97
  C 76.02 88.67 76.08 86.38 74.76 84.22
  Q 74.50 83.80 74.46 83.30
  L 74.10 78.77
  Q 74.06 78.26 73.65 77.97
  Q 73.00 77.51 73.24 76.78
  Q 73.33 76.48 73.31 76.17
  L 72.97 71.75
  A 1.51 1.51 0.0 0 0 70.07 71.28
  L 69.11 73.55
  L 69.07 72.89
  L 71.03 66.06
  Q 74.07 59.62 76.16 53.15
  Q 77.16 50.04 78.71 48.84
  Q 81.13 46.97 84.09 47.78
  Z"
/>
<path fill="#683fde" d="
  M 166.73 64.59
  L 152.44 107.42
  L 151.49 109.91
  Q 149.67 111.91 149.85 107.99
  Q 149.87 107.49 149.56 107.11
  Q 148.47 105.75 146.86 106.11
  Q 146.53 106.18 146.22 106.06
  Q 145.89 105.92 145.89 105.70
  Q 145.92 105.02 145.23 105.12
  Q 144.76 105.19 144.34 105.03
  Q 143.79 104.82 143.92 104.24
  Q 144.05 103.62 143.63 103.21
  Q 143.19 102.77 143.11 103.38
  Q 143.02 104.03 142.40 104.08
  A 0.29 0.29 0.0 0 1 142.12 103.91
  L 142.01 103.64
  Q 141.82 103.21 142.25 103.01
  L 142.65 102.83
  Q 143.29 102.54 142.67 102.21
  Q 142.31 102.02 141.91 102.12
  A 0.83 0.82 -29.1 0 1 141.15 101.91
  Q 140.99 101.75 140.91 101.55
  Q 140.74 101.12 140.28 101.12
  L 137.73 101.12
  Q 137.18 101.11 136.97 100.61
  Q 136.81 100.23 136.88 99.80
  Q 136.98 99.12 136.30 99.00
  Q 134.80 98.74 133.87 97.42
  Q 133.54 96.96 133.00 97.10
  Q 131.89 97.40 131.10 96.66
  Q 128.84 94.50 126.78 92.35
  Q 126.44 91.99 125.96 92.11
  Q 124.49 92.49 123.78 91.35
  Q 123.56 90.99 123.16 91.11
  Q 122.32 91.36 121.97 90.57
  Q 121.79 90.18 121.37 90.09
  Q 121.00 90.01 120.64 90.09
  Q 119.90 90.25 119.90 89.50
  L 119.90 89.02
  Q 119.90 88.55 119.57 88.21
  L 117.59 86.19
  Q 117.38 85.97 117.23 86.24
  L 117.04 86.60
  Q 116.74 87.17 116.24 86.76
  Q 115.32 86.00 114.98 84.64
  Q 114.88 84.27 115.21 84.06
  Q 115.87 83.66 115.65 82.84
  A 4.73 3.93 -82.6 0 0 114.15 80.47
  Q 112.91 79.51 113.14 78.05
  Q 113.25 77.36 112.78 76.83
  Q 112.09 76.06 112.11 75.00
  Q 112.12 74.50 111.74 74.18
  L 110.41 73.04
  L 110.84 73.01
  Q 111.41 72.97 111.41 72.40
  L 111.45 64.82
  Q 114.22 64.18 117.04 64.72
  L 117.12 72.41
  Q 117.13 73.02 117.74 73.02
  Q 126.86 72.96 136.62 73.02
  C 143.34 73.06 149.78 71.14 152.56 64.51
  L 166.73 64.59
  Z"
/>
<path fill="#7675ec" d="
  M 169.58 64.43
  C 172.28 72.42 178.51 74.08 186.22 74.01
  L 171.78 117.80
  Q 171.37 117.01 170.58 116.90
  A 1.36 1.28 -26.1 0 1 170.13 116.76
  Q 168.90 116.11 167.82 115.34
  Q 167.50 115.11 167.17 115.31
  Q 167.03 115.40 166.86 115.40
  Q 166.49 115.39 166.17 115.19
  Q 165.59 114.82 164.88 114.84
  Q 164.40 114.85 163.99 114.60
  L 161.74 113.26
  Q 161.37 113.04 160.95 112.98
  Q 160.16 112.86 159.70 112.14
  Q 159.40 111.67 158.87 111.50
  Q 157.47 111.05 156.07 110.29
  Q 155.65 110.07 155.97 109.72
  Q 156.02 109.67 155.99 109.61
  Q 155.82 109.19 155.36 108.96
  Q 153.97 108.27 152.44 107.42
  L 166.73 64.59
  Q 167.26 64.03 169.58 64.43
  Z"
/>
<path fill="#7675ec" d="
  M 188.17 67.39
  Q 181.53 69.21 178.04 64.52
  Q 182.62 63.89 186.68 65.33
  Q 187.44 65.60 188.17 67.39
  Z"
/>
<path fill="#a872c8" d="
  M 80.42 109.93
  L 70.19 141.05
  Q 70.06 141.29 69.54 141.71
  Q 69.47 141.46 69.22 141.31
  Q 69.10 141.24 68.95 141.25
  Q 61.96 141.46 54.99 141.81
  Q 51.73 141.98 50.13 140.71
  C 47.43 138.56 48.19 135.90 49.13 133.11
  Q 59.12 103.31 69.11 73.55
  L 70.07 71.28
  A 1.51 1.51 0.0 0 1 72.97 71.75
  L 73.31 76.17
  Q 73.33 76.48 73.24 76.78
  Q 73.00 77.51 73.65 77.97
  Q 74.06 78.26 74.10 78.77
  L 74.46 83.30
  Q 74.50 83.80 74.76 84.22
  C 76.08 86.38 76.02 88.67 76.93 90.97
  Q 77.12 91.45 76.76 91.83
  Q 75.29 93.40 76.66 95.23
  Q 76.94 95.60 76.97 96.07
  L 77.39 101.51
  A 0.78 0.75 -70.4 0 0 77.61 102.00
  Q 77.99 102.36 77.91 102.82
  Q 77.83 103.25 77.88 103.67
  Q 78.36 107.35 80.42 109.93
  Z"
/>
<path fill="#9246d8" d="
  M 92.46 72.98
  L 96.01 73.08
  Q 97.91 73.65 98.69 75.84
  Q 99.78 78.90 99.97 79.25
  Q 101.06 81.38 102.02 83.43
  Q 102.19 83.78 102.14 84.17
  Q 102.12 84.35 102.13 84.52
  Q 102.13 84.87 102.29 85.21
  Q 104.85 90.78 107.44 96.22
  Q 107.72 96.79 108.09 97.30
  Q 108.50 97.86 108.64 98.52
  Q 108.86 99.58 109.23 100.47
  Q 110.30 103.03 111.52 105.47
  Q 112.08 106.58 112.27 107.71
  Q 112.46 108.83 113.29 109.59
  Q 113.67 109.93 113.80 110.43
  C 113.98 111.12 114.36 111.67 114.98 112.06
  Q 115.60 112.44 115.34 113.18
  Q 115.22 113.54 115.58 113.64
  Q 116.34 113.86 116.23 114.68
  Q 116.13 115.36 116.46 115.96
  Q 118.68 120.04 121.54 124.23
  Q 121.76 124.55 121.53 124.90
  A 0.74 0.74 0.0 0 0 121.44 125.52
  Q 122.09 127.61 122.33 130.04
  C 122.37 130.39 122.57 130.79 122.80 131.05
  Q 123.16 131.48 123.17 132.04
  Q 123.21 133.24 123.58 134.31
  Q 123.94 135.35 124.18 136.44
  Q 124.52 138.02 124.94 139.34
  A 0.95 0.95 0.0 0 0 125.78 139.99
  L 137.14 140.69
  L 119.26 140.94
  L 117.51 139.73
  Q 117.08 139.43 117.27 138.95
  Q 117.70 137.85 116.71 137.11
  A 1.74 1.73 26.7 0 1 116.09 135.25
  Q 116.47 133.90 115.52 133.02
  Q 115.20 132.72 115.17 132.29
  Q 115.08 130.35 114.98 128.42
  Q 114.97 128.24 114.86 128.11
  Q 114.76 127.97 114.59 127.98
  Q 114.10 128.00 114.08 127.50
  L 113.99 124.73
  Q 113.97 124.17 113.49 123.89
  L 113.21 123.72
  A 0.74 0.74 0.0 0 1 112.94 122.73
  Q 113.21 122.24 112.74 121.97
  Q 112.00 121.54 112.68 121.06
  Q 112.94 120.87 112.99 120.56
  Q 113.09 119.96 112.81 119.46
  Q 110.96 116.22 109.20 113.06
  Q 107.37 109.77 105.36 105.89
  Q 103.31 101.95 101.71 97.61
  Q 100.72 94.90 98.84 92.34
  Q 98.13 91.38 97.81 90.19
  Q 97.49 88.96 96.49 87.90
  Q 96.14 87.53 96.09 87.03
  C 96.00 86.04 95.68 85.10 94.94 84.41
  Q 93.44 83.00 93.65 80.74
  Q 93.74 79.83 93.19 79.08
  Q 92.46 78.08 90.99 78.22
  L 92.46 72.98
  Z"
/>
<path fill="#8142db" d="
  M 96.01 73.08
  L 104.12 73.05
  Q 105.56 74.52 106.37 76.34
  Q 106.45 76.52 106.65 76.54
  Q 106.79 76.55 106.91 76.59
  Q 107.42 76.76 107.49 77.29
  Q 107.73 79.07 108.53 80.51
  Q 108.63 80.69 108.63 80.91
  Q 108.63 81.06 108.57 81.20
  Q 108.36 81.71 108.88 81.90
  Q 109.81 82.23 109.62 83.25
  Q 109.53 83.78 109.81 84.23
  Q 110.34 85.09 110.63 85.96
  Q 110.67 86.09 110.76 86.20
  Q 110.95 86.46 111.08 86.33
  Q 111.48 85.91 111.55 86.49
  Q 111.63 87.26 111.71 88.03
  Q 111.76 88.51 112.13 88.84
  Q 112.87 89.49 112.81 90.51
  Q 112.78 91.13 113.09 91.66
  Q 115.20 95.24 116.74 98.83
  Q 117.03 99.52 116.84 100.27
  A 1.40 1.38 40.9 0 0 116.91 101.17
  Q 117.65 102.85 118.76 104.35
  Q 119.59 105.47 119.86 106.72
  Q 120.25 108.59 121.53 110.12
  Q 122.46 111.24 123.11 112.53
  Q 123.72 113.76 124.66 114.68
  Q 126.21 116.22 128.02 117.51
  Q 128.28 117.70 128.59 117.64
  Q 128.72 117.62 128.84 117.68
  Q 129.02 117.77 129.13 117.94
  Q 130.05 119.38 131.69 119.76
  Q 132.12 119.86 132.31 120.25
  L 132.48 120.59
  A 0.22 0.22 0.0 0 0 132.75 120.69
  Q 133.69 120.34 133.95 121.30
  Q 134.08 121.75 134.54 121.64
  Q 136.24 121.22 137.15 122.77
  Q 137.32 123.06 137.64 123.03
  Q 138.80 122.94 139.18 124.13
  A 0.78 0.77 77.2 0 0 140.01 124.66
  Q 140.91 124.54 141.27 125.38
  Q 141.44 125.81 141.88 125.67
  Q 142.61 125.45 143.01 126.09
  Q 143.30 126.54 143.76 126.82
  Q 144.74 127.41 145.80 126.67
  L 143.68 133.12
  L 141.50 138.41
  Q 139.35 140.78 137.14 140.69
  L 125.78 139.99
  A 0.95 0.95 0.0 0 1 124.94 139.34
  Q 124.52 138.02 124.18 136.44
  Q 123.94 135.35 123.58 134.31
  Q 123.21 133.24 123.17 132.04
  Q 123.16 131.48 122.80 131.05
  C 122.57 130.79 122.37 130.39 122.33 130.04
  Q 122.09 127.61 121.44 125.52
  A 0.74 0.74 0.0 0 1 121.53 124.90
  Q 121.76 124.55 121.54 124.23
  Q 118.68 120.04 116.46 115.96
  Q 116.13 115.36 116.23 114.68
  Q 116.34 113.86 115.58 113.64
  Q 115.22 113.54 115.34 113.18
  Q 115.60 112.44 114.98 112.06
  C 114.36 111.67 113.98 111.12 113.80 110.43
  Q 113.67 109.93 113.29 109.59
  Q 112.46 108.83 112.27 107.71
  Q 112.08 106.58 111.52 105.47
  Q 110.30 103.03 109.23 100.47
  Q 108.86 99.58 108.64 98.52
  Q 108.50 97.86 108.09 97.30
  Q 107.72 96.79 107.44 96.22
  Q 104.85 90.78 102.29 85.21
  Q 102.13 84.87 102.13 84.52
  Q 102.12 84.35 102.14 84.17
  Q 102.19 83.78 102.02 83.43
  Q 101.06 81.38 99.97 79.25
  Q 99.78 78.90 98.69 75.84
  Q 97.91 73.65 96.01 73.08
  Z"
/>
<path fill="#7140dd" d="
  M 104.12 73.05
  L 110.41 73.04
  L 111.74 74.18
  Q 112.12 74.50 112.11 75.00
  Q 112.09 76.06 112.78 76.83
  Q 113.25 77.36 113.14 78.05
  Q 112.91 79.51 114.15 80.47
  A 4.73 3.93 -82.6 0 1 115.65 82.84
  Q 115.87 83.66 115.21 84.06
  Q 114.88 84.27 114.98 84.64
  Q 115.32 86.00 116.24 86.76
  Q 116.74 87.17 117.04 86.60
  L 117.23 86.24
  Q 117.38 85.97 117.59 86.19
  L 119.57 88.21
  Q 119.90 88.55 119.90 89.02
  L 119.90 89.50
  Q 119.90 90.25 120.64 90.09
  Q 121.00 90.01 121.37 90.09
  Q 121.79 90.18 121.97 90.57
  Q 122.32 91.36 123.16 91.11
  Q 123.56 90.99 123.78 91.35
  Q 124.49 92.49 125.96 92.11
  Q 126.44 91.99 126.78 92.35
  Q 128.84 94.50 131.10 96.66
  Q 131.89 97.40 133.00 97.10
  Q 133.54 96.96 133.87 97.42
  Q 134.80 98.74 136.30 99.00
  Q 136.98 99.12 136.88 99.80
  Q 136.81 100.23 136.97 100.61
  Q 137.18 101.11 137.73 101.12
  L 140.28 101.12
  Q 140.74 101.12 140.91 101.55
  Q 140.99 101.75 141.15 101.91
  A 0.83 0.82 -29.1 0 0 141.91 102.12
  Q 142.31 102.02 142.67 102.21
  Q 143.29 102.54 142.65 102.83
  L 142.25 103.01
  Q 141.82 103.21 142.01 103.64
  L 142.12 103.91
  A 0.29 0.29 0.0 0 0 142.40 104.08
  Q 143.02 104.03 143.11 103.38
  Q 143.19 102.77 143.63 103.21
  Q 144.05 103.62 143.92 104.24
  Q 143.79 104.82 144.34 105.03
  Q 144.76 105.19 145.23 105.12
  Q 145.92 105.02 145.89 105.70
  Q 145.89 105.92 146.22 106.06
  Q 146.53 106.18 146.86 106.11
  Q 148.47 105.75 149.56 107.11
  Q 149.87 107.49 149.85 107.99
  Q 149.67 111.91 151.49 109.91
  L 149.41 116.26
  L 145.80 126.67
  Q 144.74 127.41 143.76 126.82
  Q 143.30 126.54 143.01 126.09
  Q 142.61 125.45 141.88 125.67
  Q 141.44 125.81 141.27 125.38
  Q 140.91 124.54 140.01 124.66
  A 0.78 0.77 77.2 0 1 139.18 124.13
  Q 138.80 122.94 137.64 123.03
  Q 137.32 123.06 137.15 122.77
  Q 136.24 121.22 134.54 121.64
  Q 134.08 121.75 133.95 121.30
  Q 133.69 120.34 132.75 120.69
  A 0.22 0.22 0.0 0 1 132.48 120.59
  L 132.31 120.25
  Q 132.12 119.86 131.69 119.76
  Q 130.05 119.38 129.13 117.94
  Q 129.02 117.77 128.84 117.68
  Q 128.72 117.62 128.59 117.64
  Q 128.28 117.70 128.02 117.51
  Q 126.21 116.22 124.66 114.68
  Q 123.72 113.76 123.11 112.53
  Q 122.46 111.24 121.53 110.12
  Q 120.25 108.59 119.86 106.72
  Q 119.59 105.47 118.76 104.35
  Q 117.65 102.85 116.91 101.17
  A 1.40 1.38 40.9 0 1 116.84 100.27
  Q 117.03 99.52 116.74 98.83
  Q 115.20 95.24 113.09 91.66
  Q 112.78 91.13 112.81 90.51
  Q 112.87 89.49 112.13 88.84
  Q 111.76 88.51 111.71 88.03
  Q 111.63 87.26 111.55 86.49
  Q 111.48 85.91 111.08 86.33
  Q 110.95 86.46 110.76 86.20
  Q 110.67 86.09 110.63 85.96
  Q 110.34 85.09 109.81 84.23
  Q 109.53 83.78 109.62 83.25
  Q 109.81 82.23 108.88 81.90
  Q 108.36 81.71 108.57 81.20
  Q 108.63 81.06 108.63 80.91
  Q 108.63 80.69 108.53 80.51
  Q 107.73 79.07 107.49 77.29
  Q 107.42 76.76 106.91 76.59
  Q 106.79 76.55 106.65 76.54
  Q 106.45 76.52 106.37 76.34
  Q 105.56 74.52 104.12 73.05
  Z"
/>
<path fill="#9c45d3" d="
  M 90.99 78.22
  Q 92.46 78.08 93.19 79.08
  Q 93.74 79.83 93.65 80.74
  Q 93.44 83.00 94.94 84.41
  C 95.68 85.10 96.00 86.04 96.09 87.03
  Q 96.14 87.53 96.49 87.90
  Q 97.49 88.96 97.81 90.19
  Q 98.13 91.38 98.84 92.34
  Q 100.72 94.90 101.71 97.61
  Q 103.31 101.95 105.36 105.89
  Q 107.37 109.77 109.20 113.06
  Q 110.96 116.22 112.81 119.46
  Q 113.09 119.96 112.99 120.56
  Q 112.94 120.87 112.68 121.06
  Q 112.00 121.54 112.74 121.97
  Q 113.21 122.24 112.94 122.73
  A 0.74 0.74 0.0 0 0 113.21 123.72
  L 113.49 123.89
  Q 113.97 124.17 113.99 124.73
  L 114.08 127.50
  Q 114.10 128.00 114.59 127.98
  Q 114.76 127.97 114.86 128.11
  Q 114.97 128.24 114.98 128.42
  Q 115.08 130.35 115.17 132.29
  Q 115.20 132.72 115.52 133.02
  Q 116.47 133.90 116.09 135.25
  A 1.74 1.73 26.7 0 0 116.71 137.11
  Q 117.70 137.85 117.27 138.95
  Q 117.08 139.43 117.51 139.73
  L 119.26 140.94
  L 109.26 141.08
  L 108.64 138.59
  Q 108.53 138.15 108.14 137.93
  Q 107.92 137.81 107.91 137.55
  C 107.86 136.09 108.06 134.73 107.54 133.30
  Q 106.66 130.82 106.08 128.03
  Q 105.82 126.77 105.39 125.60
  Q 104.90 124.30 105.03 122.85
  C 105.10 122.06 104.72 121.36 104.54 120.57
  Q 104.37 119.87 103.68 120.11
  Q 103.48 120.19 103.28 120.10
  Q 102.72 119.86 102.87 119.26
  Q 103.05 118.55 102.48 118.09
  Q 102.05 117.76 101.99 117.22
  L 101.60 113.90
  Q 101.55 113.47 101.34 113.09
  Q 100.14 110.95 99.46 108.56
  A 1.02 1.01 87.6 0 0 98.68 107.84
  Q 97.99 107.71 97.92 107.13
  Q 97.87 106.76 97.73 106.41
  Q 96.79 104.03 95.78 101.62
  Q 95.02 99.80 93.18 97.41
  Q 90.76 94.26 90.19 91.77
  Q 89.41 88.31 87.85 87.51
  L 90.99 78.22
  Z"
/>
<path fill="#a944cd" d="
  M 109.26 141.08
  L 95.26 141.33
  Q 95.05 141.19 94.75 141.25
  Q 95.30 139.72 94.54 138.82
  Q 94.24 138.46 94.19 137.99
  L 93.83 134.82
  Q 93.78 134.35 93.42 134.06
  Q 92.85 133.60 93.08 132.91
  A 0.72 0.72 0.0 0 0 92.91 132.19
  C 91.48 130.68 92.73 129.15 91.60 127.88
  A 1.18 1.16 -63.9 0 1 91.31 127.01
  Q 91.48 125.01 90.40 123.83
  Q 90.08 123.47 90.07 123.00
  C 90.06 121.45 90.05 120.07 89.27 118.66
  Q 88.80 117.79 88.47 116.82
  Q 88.30 116.34 88.60 115.93
  Q 88.90 115.51 88.46 115.23
  A 0.91 0.90 19.9 0 1 88.04 114.34
  Q 88.15 113.50 87.45 113.03
  Q 86.99 112.73 87.04 112.18
  Q 87.18 110.73 86.78 109.47
  Q 86.64 109.03 86.18 108.91
  Q 86.02 108.87 85.86 108.89
  A 0.42 0.42 0.0 0 1 85.40 108.38
  Q 86.35 104.46 83.33 102.31
  L 87.85 87.51
  Q 89.41 88.31 90.19 91.77
  Q 90.76 94.26 93.18 97.41
  Q 95.02 99.80 95.78 101.62
  Q 96.79 104.03 97.73 106.41
  Q 97.87 106.76 97.92 107.13
  Q 97.99 107.71 98.68 107.84
  A 1.02 1.01 87.6 0 1 99.46 108.56
  Q 100.14 110.95 101.34 113.09
  Q 101.55 113.47 101.60 113.90
  L 101.99 117.22
  Q 102.05 117.76 102.48 118.09
  Q 103.05 118.55 102.87 119.26
  Q 102.72 119.86 103.28 120.10
  Q 103.48 120.19 103.68 120.11
  Q 104.37 119.87 104.54 120.57
  C 104.72 121.36 105.10 122.06 105.03 122.85
  Q 104.90 124.30 105.39 125.60
  Q 105.82 126.77 106.08 128.03
  Q 106.66 130.82 107.54 133.30
  C 108.06 134.73 107.86 136.09 107.91 137.55
  Q 107.92 137.81 108.14 137.93
  Q 108.53 138.15 108.64 138.59
  L 109.26 141.08
  Z"
/>
<path fill="#ba44c5" d="
  M 83.33 102.31
  Q 86.35 104.46 85.40 108.38
  A 0.42 0.42 0.0 0 0 85.86 108.89
  Q 86.02 108.87 86.18 108.91
  Q 86.64 109.03 86.78 109.47
  Q 87.18 110.73 87.04 112.18
  Q 86.99 112.73 87.45 113.03
  Q 88.15 113.50 88.04 114.34
  A 0.91 0.90 19.9 0 0 88.46 115.23
  Q 88.90 115.51 88.60 115.93
  Q 88.30 116.34 88.47 116.82
  Q 88.80 117.79 89.27 118.66
  C 90.05 120.07 90.06 121.45 90.07 123.00
  Q 90.08 123.47 90.40 123.83
  Q 91.48 125.01 91.31 127.01
  A 1.18 1.16 -63.9 0 0 91.60 127.88
  C 92.73 129.15 91.48 130.68 92.91 132.19
  A 0.72 0.72 0.0 0 1 93.08 132.91
  Q 92.85 133.60 93.42 134.06
  Q 93.78 134.35 93.83 134.82
  L 94.19 137.99
  Q 94.24 138.46 94.54 138.82
  Q 95.30 139.72 94.75 141.25
  Q 82.93 141.69 71.00 141.42
  Q 70.94 141.04 70.19 141.05
  L 80.42 109.93
  L 83.33 102.31
  Z"
/>
<path fill="#8e78e9" d="
  M 152.44 107.42
  Q 153.97 108.27 155.36 108.96
  Q 155.82 109.19 155.99 109.61
  Q 156.02 109.67 155.97 109.72
  Q 155.65 110.07 156.07 110.29
  Q 157.47 111.05 158.87 111.50
  Q 159.40 111.67 159.70 112.14
  Q 160.16 112.86 160.95 112.98
  Q 161.37 113.04 161.74 113.26
  L 163.99 114.60
  Q 164.40 114.85 164.88 114.84
  Q 165.59 114.82 166.17 115.19
  Q 166.49 115.39 166.86 115.40
  Q 167.03 115.40 167.17 115.31
  Q 167.50 115.11 167.82 115.34
  Q 168.90 116.11 170.13 116.76
  A 1.36 1.28 -26.1 0 0 170.58 116.90
  Q 171.37 117.01 171.78 117.80
  L 167.02 132.60
  Q 164.44 128.32 161.22 126.74
  A 2.08 2.07 -5.3 0 1 160.47 126.12
  Q 159.70 125.14 158.53 124.78
  Q 158.05 124.63 157.68 124.28
  L 152.96 119.73
  Q 152.58 119.36 152.05 119.37
  Q 151.65 119.37 151.69 118.98
  Q 151.74 118.30 151.08 118.15
  Q 149.73 117.83 149.41 116.26
  L 151.49 109.91
  L 152.44 107.42
  Z"
/>
<path fill="#a071dc" d="
  M 149.41 116.26
  Q 149.73 117.83 151.08 118.15
  Q 151.74 118.30 151.69 118.98
  Q 151.65 119.37 152.05 119.37
  Q 152.58 119.36 152.96 119.73
  L 157.68 124.28
  Q 158.05 124.63 158.53 124.78
  Q 159.70 125.14 160.47 126.12
  A 2.08 2.07 -5.3 0 0 161.22 126.74
  Q 164.44 128.32 167.02 132.60
  L 163.03 144.89
  Q 161.76 143.98 160.82 143.90
  Q 160.21 143.84 159.93 143.29
  Q 159.63 142.70 158.98 142.88
  Q 158.31 143.06 158.02 142.44
  Q 157.83 142.05 157.38 141.97
  A 0.41 0.40 18.4 0 1 157.09 141.40
  Q 157.35 140.88 156.74 140.72
  A 1.08 1.05 84.8 0 1 156.06 140.14
  Q 154.80 137.36 152.12 136.55
  Q 151.98 136.50 151.91 136.64
  Q 151.84 136.76 151.88 136.90
  Q 151.99 137.29 151.71 137.00
  Q 151.51 136.81 151.24 136.87
  Q 150.97 136.94 150.91 137.19
  Q 150.80 137.60 150.80 137.18
  Q 150.80 137.01 150.65 136.92
  Q 150.49 136.82 150.32 136.89
  Q 149.63 137.13 149.92 137.85
  A 0.06 0.05 -2.0 0 1 149.85 137.92
  Q 149.72 137.87 149.59 137.90
  Q 149.41 137.93 149.29 137.79
  Q 148.61 136.94 147.84 136.24
  Q 147.21 135.66 146.61 134.97
  Q 145.63 133.86 143.68 133.12
  L 145.80 126.67
  L 149.41 116.26
  Z"
/>
<path fill="#ae6ad0" d="
  M 163.03 144.89
  Q 161.38 151.61 159.35 155.07
  Q 157.04 159.01 151.76 158.97
  Q 138.00 158.87 124.18 158.66
  L 139.54 157.69
  A 1.43 1.42 88.3 0 0 140.88 156.26
  L 140.88 151.42
  A 0.51 0.47 69.2 0 1 141.02 151.07
  Q 141.41 150.67 141.68 150.97
  Q 141.99 151.31 141.88 150.86
  Q 141.84 150.73 141.88 150.61
  Q 142.07 150.07 141.50 150.11
  Q 140.88 150.17 140.88 149.55
  Q 140.91 145.98 140.82 142.71
  Q 140.80 142.10 141.38 141.92
  Q 142.03 141.72 141.91 141.00
  Q 141.71 139.80 141.50 138.41
  L 143.68 133.12
  Q 145.63 133.86 146.61 134.97
  Q 147.21 135.66 147.84 136.24
  Q 148.61 136.94 149.29 137.79
  Q 149.41 137.93 149.59 137.90
  Q 149.72 137.87 149.85 137.92
  A 0.06 0.05 -2.0 0 0 149.92 137.85
  Q 149.63 137.13 150.32 136.89
  Q 150.49 136.82 150.65 136.92
  Q 150.80 137.01 150.80 137.18
  Q 150.80 137.60 150.91 137.19
  Q 150.97 136.94 151.24 136.87
  Q 151.51 136.81 151.71 137.00
  Q 151.99 137.29 151.88 136.90
  Q 151.84 136.76 151.91 136.64
  Q 151.98 136.50 152.12 136.55
  Q 154.80 137.36 156.06 140.14
  A 1.08 1.05 84.8 0 0 156.74 140.72
  Q 157.35 140.88 157.09 141.40
  A 0.41 0.40 18.4 0 0 157.38 141.97
  Q 157.83 142.05 158.02 142.44
  Q 158.31 143.06 158.98 142.88
  Q 159.63 142.70 159.93 143.29
  Q 160.21 143.84 160.82 143.90
  Q 161.76 143.98 163.03 144.89
  Z"
/>
<path fill="#b055d2" d="
  M 141.50 138.41
  Q 141.71 139.80 141.91 141.00
  Q 142.03 141.72 141.38 141.92
  Q 140.80 142.10 140.82 142.71
  Q 140.91 145.98 140.88 149.55
  Q 140.88 150.17 141.50 150.11
  Q 142.07 150.07 141.88 150.61
  Q 141.84 150.73 141.88 150.86
  Q 141.99 151.31 141.68 150.97
  Q 141.41 150.67 141.02 151.07
  A 0.51 0.47 69.2 0 0 140.88 151.42
  L 140.88 156.26
  A 1.43 1.42 88.3 0 1 139.54 157.69
  L 124.18 158.66
  L 94.18 158.68
  Q 96.05 158.00 98.03 158.07
  A 1.10 1.10 0.0 0 0 99.17 156.93
  Q 99.05 153.80 99.12 150.44
  Q 99.13 149.89 99.63 150.14
  Q 99.78 150.21 99.90 150.03
  Q 100.12 149.68 99.93 149.31
  Q 99.58 148.65 99.17 148.03
  A 0.90 0.85 29.1 0 1 99.01 147.53
  L 99.01 143.37
  Q 99.01 142.87 98.51 142.86
  Q 98.12 142.85 97.74 143.03
  Q 97.07 143.34 97.61 142.85
  Q 97.89 142.60 97.88 142.22
  Q 97.87 141.69 97.34 141.71
  Q 96.09 141.74 95.26 141.33
  L 109.26 141.08
  L 119.26 140.94
  L 137.14 140.69
  Q 139.35 140.78 141.50 138.41
  Z"
/>
<path fill="#b33bd5" d="
  M 70.19 141.05
  Q 70.94 141.04 71.00 141.42
  Q 82.93 141.69 94.75 141.25
  Q 95.05 141.19 95.26 141.33
  Q 96.09 141.74 97.34 141.71
  Q 97.87 141.69 97.88 142.22
  Q 97.89 142.60 97.61 142.85
  Q 97.07 143.34 97.74 143.03
  Q 98.12 142.85 98.51 142.86
  Q 99.01 142.87 99.01 143.37
  L 99.01 147.53
  A 0.90 0.85 29.1 0 0 99.17 148.03
  Q 99.58 148.65 99.93 149.31
  Q 100.12 149.68 99.90 150.03
  Q 99.78 150.21 99.63 150.14
  Q 99.13 149.89 99.12 150.44
  Q 99.05 153.80 99.17 156.93
  A 1.10 1.10 0.0 0 1 98.03 158.07
  Q 96.05 158.00 94.18 158.68
  Q 83.16 158.80 72.10 158.77
  Q 68.65 158.76 67.16 157.72
  Q 64.44 155.82 66.08 151.78
  Q 68.08 146.81 69.54 141.71
  Q 70.06 141.29 70.19 141.05
  Z"
/>
<path fill="#ffffff" d="
  M 104.38 209.88
  Q 104.09 193.01 104.29 176.40
  Q 104.29 176.11 104.57 176.11
  L 111.27 176.11
  Q 111.48 176.11 111.48 176.31
  L 111.48 220.30
  Q 111.48 220.83 110.95 220.83
  L 103.86 220.84
  Q 103.30 220.84 102.99 220.37
  L 81.67 186.73
  Q 81.47 186.41 81.47 186.79
  L 81.51 220.54
  Q 81.51 220.83 81.21 220.83
  L 74.53 220.82
  Q 74.24 220.82 74.24 220.53
  L 74.24 176.82
  Q 74.24 176.14 74.93 176.13
  L 81.75 176.08
  Q 82.79 176.07 83.35 176.95
  L 104.08 209.97
  Q 104.39 210.46 104.38 209.88
  Z"
/>
<path fill="#ffffff" d="
  M 128.41 195.06
  L 142.58 195.03
  A 0.41 0.41 0.0 0 1 142.99 195.44
  L 143.01 201.09
  A 0.41 0.41 0.0 0 1 142.60 201.50
  L 128.41 201.50
  A 0.41 0.41 0.0 0 0 128.00 201.91
  L 128.00 213.97
  A 0.41 0.41 0.0 0 0 128.41 214.38
  L 145.07 214.38
  A 0.41 0.41 0.0 0 1 145.48 214.79
  L 145.49 220.43
  A 0.41 0.41 0.0 0 1 145.08 220.84
  L 121.17 220.84
  A 0.41 0.41 0.0 0 1 120.76 220.43
  L 120.76 176.51
  A 0.41 0.41 0.0 0 1 121.17 176.10
  L 144.09 176.10
  A 0.41 0.41 0.0 0 1 144.50 176.51
  L 144.50 182.21
  A 0.41 0.41 0.0 0 1 144.09 182.62
  L 128.41 182.62
  A 0.41 0.41 0.0 0 0 128.00 183.03
  L 128.00 194.65
  A 0.41 0.41 0.0 0 0 128.41 195.06
  Z"
/>
<path fill="#ffffff" d="
  M 159.92 182.62
  L 148.09 182.60
  A 0.31 0.31 0.0 0 1 147.78 182.30
  L 147.69 176.43
  A 0.31 0.31 0.0 0 1 148.00 176.11
  L 179.67 176.09
  A 0.31 0.31 0.0 0 1 179.98 176.40
  L 180.00 182.33
  A 0.31 0.31 0.0 0 1 179.69 182.64
  L 168.02 182.59
  A 0.31 0.31 0.0 0 0 167.71 182.90
  L 167.72 220.52
  A 0.31 0.31 0.0 0 1 167.41 220.83
  L 160.53 220.83
  A 0.31 0.31 0.0 0 1 160.22 220.52
  L 160.23 182.93
  A 0.31 0.31 0.0 0 0 159.92 182.62
  Z"
/>
<path fill="#ffffff" d="
  M 67.09 217.30
  A 4.39 4.39 0.0 0 1 62.70 221.69
  A 4.39 4.39 0.0 0 1 58.31 217.30
  A 4.39 4.39 0.0 0 1 62.70 212.91
  A 4.39 4.39 0.0 0 1 67.09 217.30
  Z"
/>
</g>
<g>
<path fill="#512bd4" d="
  M 129.86 40.49
  A 0.45 0.45 0.0 0 1 130.31 40.04
  L 132.37 40.04
  A 5.79 3.26 -0.2 0 1 138.17 43.28
  L 138.17 43.72
  A 5.79 3.26 -0.2 0 1 132.39 47.00
  L 130.33 47.00
  A 0.45 0.45 0.0 0 1 129.88 46.55
  L 129.86 40.49
  Z"
/>
<path fill="#5732d4" d="
  M 129.86 56.41
  A 0.43 0.43 0.0 0 1 130.29 55.98
  L 134.06 55.98
  A 5.34 3.67 -0.0 0 1 139.40 59.65
  L 139.40 60.29
  A 5.34 3.67 -0.0 0 1 134.06 63.96
  L 130.29 63.96
  A 0.43 0.43 0.0 0 1 129.86 63.53
  L 129.86 56.41
  Z"
/>
</g>
</svg>
